<?xml version="1.0" standalone="no"?>
<!DOCTYPE svg PUBLIC "-//W3C//DTD SVG 20010904//EN"
 "http://www.w3.org/TR/2001/REC-SVG-20010904/DTD/svg10.dtd">
<svg version="1.0" xmlns="http://www.w3.org/2000/svg"
 width="477.000000pt" height="523.000000pt" viewBox="0 0 477.000000 523.000000"
 preserveAspectRatio="xMidYMid meet">

<g transform="translate(0.000000,523.000000) scale(0.100000,-0.100000)"
fill="#000000" stroke="none">
<path d="M2414 4864 c-18 -14 -18 -15 4 -4 12 6 22 13 22 15 0 8 -5 6 -26 -11z"/>
<path d="M2013 4760 c-24 -10 -32 -40 -10 -40 6 0 32 7 57 14 l45 14 -28 11
c-33 13 -35 13 -64 1z"/>
<path d="M1877 4719 c7 -7 15 -10 18 -7 3 3 -2 9 -12 12 -14 6 -15 5 -6 -5z"/>
<path d="M2227 4719 c-9 -6 -15 -14 -12 -20 10 -15 22 -10 28 11 3 11 4 20 4
20 -1 0 -10 -5 -20 -11z"/>
<path d="M2258 4691 c-49 -38 -151 -76 -171 -65 -7 4 -9 3 -4 -1 4 -5 -51 -32
-123 -60 -72 -28 -135 -57 -140 -65 -6 -8 -10 -29 -10 -46 0 -17 -7 -50 -15
-73 -8 -22 -12 -41 -8 -41 3 0 0 -6 -6 -14 -9 -10 -48 -112 -53 -136 -1 -9 -6
-25 -27 -85 -12 -33 -17 -61 -11 -63 5 -2 5 -13 0 -28 -6 -14 -13 -56 -16 -95
-4 -40 -12 -69 -18 -69 -7 0 -7 -3 1 -8 9 -6 10 -22 4 -60 -4 -28 -5 -54 -2
-57 5 -6 39 121 46 175 2 14 13 63 25 110 11 47 22 96 24 109 2 13 8 26 13 30
6 3 13 13 17 21 3 8 4 4 1 -10 -3 -14 -8 -44 -11 -67 -4 -24 -11 -43 -16 -43
-6 0 -8 -6 -5 -14 3 -7 2 -17 -3 -22 -15 -16 -30 -165 -18 -184 8 -12 8 -38 0
-90 -6 -41 -9 -78 -6 -82 3 -5 6 -50 6 -101 0 -60 3 -85 8 -72 8 18 9 17 9 -8
1 -19 -3 -26 -11 -21 -7 4 -8 3 -4 -4 18 -30 23 -2 22 126 -1 158 4 242 14
242 4 0 10 -51 14 -112 7 -123 30 -281 45 -319 6 -14 10 -18 11 -9 3 37 33
-70 34 -122 1 -14 4 -24 8 -22 4 2 9 -4 11 -13 2 -10 2 5 -1 32 -2 28 -2 47 2
44 3 -3 10 -50 16 -104 10 -99 23 -135 33 -96 3 12 1 21 -4 21 -6 0 -6 8 1 19
7 14 6 21 -3 24 -8 3 -5 10 10 21 18 14 21 21 13 42 -6 14 -7 23 -2 21 4 -3 7
7 8 21 0 15 3 59 7 98 4 52 3 76 -7 90 -8 10 -21 47 -31 81 -10 35 -31 79 -49
100 -60 72 -67 136 -17 162 12 7 17 19 16 35 -2 14 0 41 5 60 6 29 5 36 -7 36
-11 0 -13 4 -6 13 6 6 16 29 22 50 7 20 17 37 22 37 5 0 9 7 9 15 0 8 4 15 8
15 5 0 16 16 25 36 10 19 12 32 6 28 -7 -4 -21 -8 -33 -9 -36 -4 -37 -5 -32
-14 3 -4 -6 -13 -20 -20 -38 -17 -49 -13 -29 9 18 19 17 20 -5 20 -34 0 -20 9
21 14 19 2 34 8 34 14 0 6 4 14 9 19 5 5 6 3 2 -4 -10 -17 6 -16 30 2 26 19
37 19 30 -2 -4 -11 4 -7 18 10 27 29 42 34 48 16 2 -7 9 -5 17 5 12 14 12 16
-4 10 -14 -6 -16 -4 -10 6 5 9 4 11 -3 6 -25 -15 -11 23 16 43 25 19 25 20 4
14 -22 -5 -49 -25 -97 -69 -13 -12 -35 -24 -49 -26 l-25 -5 18 26 c29 42 33
51 22 51 -6 0 -11 -7 -11 -17 0 -9 -3 -13 -7 -10 -3 4 -16 -2 -28 -13 -19 -18
-23 -19 -28 -6 -4 9 -1 15 6 13 7 -1 11 5 9 14 -2 15 61 79 99 100 21 11 27
-5 7 -17 -8 -5 -6 -10 8 -15 17 -7 17 -8 2 -8 -10 -1 -18 -6 -18 -11 0 -7 6
-7 20 0 11 6 20 14 20 19 0 4 19 16 42 27 l42 19 -40 12 -39 11 50 2 50 2 -53
16 c-54 17 -70 34 -38 40 9 2 30 -1 46 -7 17 -5 30 -6 30 -1 0 8 -28 19 -85
34 -11 3 -1 4 23 2 24 -3 51 -11 61 -20 19 -17 36 -22 26 -7 -3 5 -1 12 5 16
6 4 7 11 4 17 -4 6 1 8 15 3 13 -4 21 -2 21 5 0 8 -11 11 -30 8 -16 -3 -30 -1
-30 3 0 4 -8 10 -18 13 -17 6 -29 46 -13 46 4 0 16 7 27 16 19 15 18 15 -3 11
-13 -3 -21 0 -20 6 3 20 31 36 60 37 15 0 27 5 27 11 0 5 4 7 10 4 5 -3 7 0 4
8 -4 11 1 13 22 9 19 -3 25 -1 20 7 -5 7 1 11 14 11 12 0 18 5 15 10 -3 6 5
14 18 19 14 6 27 16 30 23 3 7 6 2 6 -11 l1 -25 21 22 c11 12 17 27 14 32 -11
18 -39 9 -87 -29z m-288 -196 c-24 -25 -46 -42 -49 -40 -3 3 15 25 39 50 24
25 46 42 49 40 3 -3 -15 -25 -39 -50z m-93 -42 c-3 -10 -5 -4 -5 12 0 17 2 24
5 18 2 -7 2 -21 0 -30z m-33 -69 c-6 -25 -8 -26 -15 -9 -11 28 -10 43 1 25 8
-13 10 -12 10 4 0 11 2 17 5 14 4 -3 3 -18 -1 -34z m-47 -116 c-3 -8 -6 -5 -6
6 -1 11 2 17 5 13 3 -3 4 -12 1 -19z m-7 -69 c0 -6 -4 -7 -10 -4 -5 3 -10 11
-10 16 0 6 5 7 10 4 6 -3 10 -11 10 -16z m230 10 c0 -5 -4 -7 -10 -4 -5 3 -10
-2 -10 -11 0 -10 -3 -15 -6 -11 -9 9 3 37 16 37 5 0 10 -5 10 -11z m-263 -236
c-3 -10 -5 -4 -5 12 0 17 2 24 5 18 2 -7 2 -21 0 -30z m130 -645 c-3 -8 -6 -5
-6 6 -1 11 2 17 5 13 3 -3 4 -12 1 -19z"/>
<path d="M1828 4689 c-10 -5 -18 -16 -18 -24 0 -12 7 -11 45 2 25 8 42 19 39
24 -7 12 -45 11 -66 -2z"/>
<path d="M2378 4693 c7 -3 16 -2 19 1 4 3 -2 6 -13 5 -11 0 -14 -3 -6 -6z"/>
<path d="M2355 4672 c-18 -13 -38 -42 -29 -42 5 0 17 12 27 25 19 26 19 30 2
17z"/>
<path d="M2550 4613 c0 -6 -11 -8 -26 -5 -18 3 -25 1 -20 -6 4 -6 -12 -19 -39
-31 -25 -11 -45 -25 -45 -31 0 -6 -4 -9 -9 -6 -5 3 -11 -1 -15 -9 -4 -12 3
-11 35 5 22 12 52 25 67 31 l27 9 -25 -20 c-20 -15 -21 -20 -8 -20 9 0 20 5
23 10 3 6 14 10 24 10 10 0 26 9 35 19 10 11 28 21 40 23 18 3 19 4 4 10 -12
5 -25 0 -38 -14 -11 -12 -23 -18 -27 -14 -4 4 -1 11 7 16 12 7 12 12 2 22 -7
7 -12 8 -12 1z"/>
<path d="M2414 4594 c-18 -14 -18 -14 6 -3 31 14 36 19 24 19 -6 0 -19 -7 -30
-16z"/>
<path d="M2610 4559 c-19 -12 -37 -24 -40 -28 -3 -3 -12 -7 -20 -9 -8 -2 -19
-10 -23 -18 -4 -8 -16 -14 -26 -14 -10 0 -24 -7 -31 -15 -10 -12 -7 -15 13
-20 27 -7 81 20 72 36 -3 4 11 19 32 32 33 21 72 57 62 57 -2 0 -20 -10 -39
-21z m-110 -83 c0 -3 -4 -8 -10 -11 -5 -3 -10 -1 -10 4 0 6 5 11 10 11 6 0 10
-2 10 -4z"/>
<path d="M1820 4559 c0 -5 5 -7 10 -4 6 3 10 8 10 11 0 2 -4 4 -10 4 -5 0 -10
-5 -10 -11z"/>
<path d="M2448 4519 c-9 -5 -15 -16 -12 -24 5 -13 10 -13 35 2 20 12 25 19 16
25 -15 10 -18 10 -39 -3z"/>
<path d="M1760 4456 c-25 -59 -79 -251 -85 -301 -5 -43 3 -19 62 175 14 47 34
102 44 122 22 43 23 48 9 48 -6 0 -19 -20 -30 -44z"/>
<path d="M2090 4496 c0 -2 9 -6 20 -9 11 -3 18 -1 14 4 -5 9 -34 13 -34 5z"/>
<path d="M2185 4480 c-4 -6 3 -10 14 -10 25 0 27 6 6 13 -8 4 -17 2 -20 -3z"/>
<path d="M2405 4460 c3 -5 8 -10 11 -10 2 0 4 5 4 10 0 6 -5 10 -11 10 -5 0
-7 -4 -4 -10z"/>
<path d="M2580 4460 c-9 -6 -10 -10 -3 -10 6 0 15 5 18 10 8 12 4 12 -15 0z"/>
<path d="M2145 4410 c8 -13 55 -13 75 0 11 7 2 10 -33 10 -30 0 -46 -4 -42
-10z"/>
<path d="M2058 4393 c7 -3 16 -2 19 1 4 3 -2 6 -13 5 -11 0 -14 -3 -6 -6z"/>
<path d="M2120 4342 c-42 -47 -44 -54 -6 -28 21 14 43 26 48 26 5 0 6 5 3 10
-9 15 -28 11 -45 -8z"/>
<path d="M2180 4345 c0 -9 6 -12 15 -9 8 4 15 10 15 15 0 5 -7 9 -15 9 -8 0
-15 -7 -15 -15z"/>
<path d="M2120 4280 c-9 -6 -10 -10 -3 -10 6 0 15 5 18 10 8 12 4 12 -15 0z"/>
<path d="M2124 4254 c-18 -14 -18 -15 4 -4 12 6 22 13 22 15 0 8 -5 6 -26 -11z"/>
<path d="M2073 4240 c-13 -5 -23 -12 -23 -15 0 -9 16 -5 36 10 22 16 19 18
-13 5z"/>
<path d="M2095 4220 c-3 -6 1 -7 9 -4 18 7 21 14 7 14 -6 0 -13 -4 -16 -10z"/>
<path d="M2340 4021 c0 -15 60 -41 78 -33 10 4 7 9 -13 19 -15 8 -29 12 -32 9
-4 -3 -12 -1 -20 5 -10 9 -13 8 -13 0z"/>
<path d="M1661 3984 c0 -11 3 -14 6 -6 3 7 2 16 -1 19 -3 4 -6 -2 -5 -13z"/>
<path d="M2740 3971 c0 -9 -8 -11 -24 -7 -28 7 -89 -30 -94 -57 -3 -14 4 -17
43 -17 42 0 46 2 51 30 l6 29 36 -14 c40 -17 46 -15 37 15 -5 14 -12 19 -23
15 -8 -3 -19 0 -24 7 -6 10 -8 10 -8 -1z"/>
<path d="M2293 3963 c9 -2 23 -2 30 0 6 3 -1 5 -18 5 -16 0 -22 -2 -12 -5z"/>
<path d="M2343 3963 c4 -7 -10 -13 -36 -15 -23 -2 -43 -1 -45 4 -6 14 -19 9
-51 -18 -17 -14 -29 -30 -25 -35 7 -12 51 -11 59 1 4 6 12 4 22 -5 23 -23 67
-15 71 13 4 28 33 29 57 2 19 -21 41 -28 29 -8 -5 8 -1 9 12 4 13 -5 10 2 -11
23 -29 29 -96 56 -82 34z m77 -45 c0 -4 -13 1 -30 10 -16 9 -30 21 -30 25 0 5
14 0 30 -10 17 -9 30 -21 30 -25z"/>
<path d="M1650 3936 c0 -13 -3 -31 -6 -40 -3 -9 -2 -16 3 -16 5 0 10 18 11 40
2 22 0 40 -3 40 -3 0 -5 -11 -5 -24z"/>
<path d="M1641 3794 c0 -11 3 -14 6 -6 3 7 2 16 -1 19 -3 4 -6 -2 -5 -13z"/>
<path d="M1713 3740 c0 -25 2 -35 4 -22 2 12 2 32 0 45 -2 12 -4 2 -4 -23z"/>
<path d="M2396 3655 c-9 -9 -21 -26 -27 -37 -11 -20 -11 -20 15 -2 25 19 40
43 32 51 -2 2 -11 -3 -20 -12z"/>
<path d="M2688 3658 c-3 -7 2 -28 9 -47 18 -42 11 -73 -19 -86 -13 -5 -24 -20
-26 -32 -2 -12 -19 -32 -38 -43 -24 -15 -34 -29 -34 -47 0 -36 20 -25 57 33
55 84 62 91 73 74 8 -13 11 -12 24 5 24 31 19 76 -13 118 -18 23 -31 33 -33
25z"/>
<path d="M1672 3620 c0 -19 2 -27 5 -17 2 9 2 25 0 35 -3 9 -5 1 -5 -18z"/>
<path d="M1692 3630 c0 -14 2 -19 5 -12 2 6 2 18 0 25 -3 6 -5 1 -5 -13z"/>
<path d="M2500 3630 c-13 -8 -13 -10 1 -10 9 0 32 -3 50 -6 24 -5 31 -3 24 4
-15 16 -58 23 -75 12z"/>
<path d="M1773 3575 c0 -33 2 -45 4 -27 2 18 2 45 0 60 -2 15 -4 0 -4 -33z"/>
<path d="M1273 3596 c17 -14 17 -15 -5 -22 -13 -4 -27 -7 -31 -6 -5 1 -6 -2
-2 -8 9 -15 24 -12 51 9 25 20 24 23 -11 34 -19 7 -19 6 -2 -7z"/>
<path d="M1190 3576 c0 -2 8 -10 18 -17 15 -13 16 -12 3 4 -13 16 -21 21 -21
13z"/>
<path d="M2302 3528 c-26 -26 -3 -64 68 -111 30 -21 40 -21 40 -3 0 11 10 11
57 -4 44 -13 61 -15 75 -6 17 10 16 11 -5 17 -13 3 -32 11 -43 17 -10 5 -44
13 -74 16 -81 9 -91 41 -16 50 62 8 56 18 -9 16 -81 -2 -87 -2 -80 10 8 14 2
13 -13 -2z"/>
<path d="M1770 3475 c0 -14 4 -25 9 -25 4 0 6 11 3 25 -2 14 -6 25 -8 25 -2 0
-4 -11 -4 -25z"/>
<path d="M1438 3353 c7 -3 16 -2 19 1 4 3 -2 6 -13 5 -11 0 -14 -3 -6 -6z"/>
<path d="M1870 3171 c0 -5 5 -13 10 -16 6 -3 10 -2 10 4 0 5 -4 13 -10 16 -5
3 -10 2 -10 -4z"/>
<path d="M2973 3113 c-31 -3 -41 -8 -37 -18 9 -22 -16 -84 -48 -120 l-29 -34
79 -103 c74 -98 190 -265 205 -298 4 -8 23 -39 42 -69 l34 -55 61 3 c43 2 69
-2 86 -14 19 -12 32 -14 53 -7 22 8 41 4 99 -20 84 -36 102 -33 102 17 0 22
-4 34 -10 30 -5 -3 -9 2 -8 12 0 10 0 41 -1 68 -2 48 -2 49 -15 26 -13 -23
-14 -19 -15 46 -1 70 -39 251 -66 315 -22 54 -50 82 -134 138 -79 51 -84 53
-208 71 -71 10 -132 18 -138 17 -5 -1 -29 -3 -52 -5z m609 -722 c-7 -20 -9
-11 -9 39 0 60 1 62 9 26 5 -22 5 -51 0 -65z"/>
<path d="M1879 3108 c-6 -11 -5 -48 1 -48 4 0 8 11 8 25 0 21 -5 32 -9 23z"/>
<path d="M2590 3105 c0 -11 103 -190 113 -196 5 -4 2 -11 -9 -17 -46 -24 -296
-94 -427 -118 -78 -15 -144 -29 -146 -30 -2 -2 1 -9 7 -16 26 -32 279 -486
340 -610 51 -107 47 -103 157 -118 72 -9 425 -5 468 5 30 8 48 57 84 237 6 31
-11 62 -158 288 -56 85 -119 184 -141 220 -66 108 -91 143 -138 194 -64 70
-71 77 -112 124 -21 23 -38 40 -38 37z"/>
<path d="M1925 3061 c-3 -5 -1 -12 5 -16 5 -3 10 1 10 9 0 18 -6 21 -15 7z"/>
<path d="M1870 3035 c0 -8 2 -15 4 -15 2 0 6 7 10 15 3 8 1 15 -4 15 -6 0 -10
-7 -10 -15z"/>
<path d="M1905 3000 c-7 -12 2 -12 30 0 19 8 19 9 -2 9 -12 1 -25 -3 -28 -9z"/>
<path d="M1995 2940 c10 -11 20 -20 23 -20 3 0 -3 9 -13 20 -10 11 -20 20 -23
20 -3 0 3 -9 13 -20z"/>
<path d="M1933 2943 c9 -2 23 -2 30 0 6 3 -1 5 -18 5 -16 0 -22 -2 -12 -5z"/>
<path d="M1973 2893 c9 -2 23 -2 30 0 6 3 -1 5 -18 5 -16 0 -22 -2 -12 -5z"/>
<path d="M1903 2883 c9 -2 23 -2 30 0 6 3 -1 5 -18 5 -16 0 -22 -2 -12 -5z"/>
<path d="M1542 2835 c-7 -14 -12 -30 -12 -35 0 -13 27 -13 35 0 3 6 -1 7 -9 4
-19 -7 -20 0 -5 28 6 11 9 22 6 24 -2 2 -9 -7 -15 -21z"/>
<path d="M1923 2833 c9 -2 25 -2 35 0 9 3 1 5 -18 5 -19 0 -27 -2 -17 -5z"/>
<path d="M1953 2783 c9 -2 23 -2 30 0 6 3 -1 5 -18 5 -16 0 -22 -2 -12 -5z"/>
<path d="M2018 2783 c7 -3 16 -2 19 1 4 3 -2 6 -13 5 -11 0 -14 -3 -6 -6z"/>
<path d="M1564 2765 c-12 -8 -24 -12 -27 -9 -3 3 -20 -2 -38 -11 -28 -15 -30
-19 -15 -27 31 -17 68 -5 88 30 20 37 20 37 -8 17z"/>
<path d="M1664 2754 c6 -23 4 -25 -16 -19 -16 4 -19 4 -9 -3 11 -8 10 -11 -5
-15 -12 -3 -13 -5 -4 -6 19 -1 80 36 80 49 0 14 -13 13 -29 -2 -11 -11 -13
-10 -8 5 4 9 2 17 -4 17 -7 0 -9 -10 -5 -26z"/>
<path d="M1766 2759 c-3 -14 -9 -20 -13 -14 -12 15 -33 17 -30 3 1 -7 -2 -12
-8 -13 -19 -1 -35 -16 -29 -27 5 -7 2 -8 -6 -3 -7 4 -16 2 -20 -5 -4 -6 -33
-14 -64 -16 -32 -2 -66 -9 -76 -14 -10 -6 -25 -10 -32 -9 -7 0 -4 4 7 8 16 6
11 11 -28 26 -38 14 -52 16 -73 6 -14 -6 -33 -11 -44 -11 -10 0 -40 -19 -66
-43 l-48 -43 17 -41 c18 -46 33 -153 46 -328 10 -128 31 -208 125 -468 58
-162 60 -210 14 -284 -145 -229 -233 -297 -333 -258 -55 21 -125 75 -149 116
-10 18 -27 62 -37 98 -18 64 -18 64 -12 16 3 -27 12 -70 19 -95 18 -59 17 -97
-2 -45 l-13 40 3 -74 c3 -64 9 -84 51 -165 73 -140 129 -180 255 -181 53 0 78
6 135 33 109 52 205 158 205 227 0 18 7 54 16 81 12 38 15 91 14 242 -1 107 3
192 8 192 11 0 32 -45 32 -70 0 -10 8 -25 18 -32 21 -16 72 -143 72 -181 0
-15 12 -46 28 -69 25 -38 27 -50 27 -136 0 -93 0 -94 32 -121 44 -37 54 -114
24 -184 -27 -61 -27 -61 8 -94 16 -15 32 -40 35 -55 5 -24 1 -31 -29 -50 -41
-27 -44 -51 -13 -104 21 -35 22 -36 31 -16 12 25 63 47 71 29 3 -9 5 -9 5 1 1
6 6 12 12 12 5 0 9 -3 7 -8 -2 -4 10 -20 26 -37 27 -27 29 -27 15 -5 -8 14
-13 36 -11 50 4 23 5 24 13 5 7 -19 8 -19 8 1 1 23 26 40 36 23 4 -5 13 -3 21
6 14 13 35 20 57 16 4 0 7 4 7 10 0 5 5 7 10 4 6 -3 10 -1 10 5 0 6 5 8 10 5
6 -3 10 -1 10 6 0 7 3 10 6 6 4 -3 18 0 33 7 14 8 52 20 85 27 l59 13 -6 310
c-4 171 -9 336 -11 366 -3 30 -7 91 -10 135 -3 44 -19 136 -36 205 -16 69 -30
142 -30 163 l0 37 44 0 c78 0 80 5 37 68 -21 32 -52 82 -68 112 -34 62 -86
156 -117 212 -90 158 -186 338 -186 346 0 5 -40 13 -90 16 -65 6 -92 12 -98
23 -8 13 -10 11 -16 -8z m-302 -98 c4 -5 -3 -7 -14 -4 -23 6 -26 13 -6 13 8 0
17 -4 20 -9z m513 -2033 c-3 -8 -6 -5 -6 6 -1 11 2 17 5 13 3 -3 4 -12 1 -19z"/>
<path d="M3870 2309 c0 -38 1 -40 28 -37 23 3 27 8 30 41 3 35 2 37 -27 37
-30 0 -31 -2 -31 -41z"/>
<path d="M3617 2190 l-16 -42 31 6 c41 8 44 12 26 33 -9 10 -17 24 -20 32 -2
7 -11 -5 -21 -29z"/>
<path d="M3801 2209 c-27 -16 -36 -18 -43 -7 -8 10 -9 10 -5 -2 2 -8 -3 -20
-12 -27 -13 -10 -10 -12 21 -13 28 0 42 -7 61 -30 14 -16 27 -33 29 -37 5 -12
90 -83 99 -83 11 0 4 29 -11 43 -10 10 -12 9 -6 -3 4 -8 1 -6 -8 4 -8 10 -13
23 -10 27 3 5 -1 9 -9 9 -16 0 -50 67 -41 82 5 7 2 8 -6 3 -10 -6 -12 -4 -7 7
3 9 0 23 -6 32 -11 14 -15 14 -46 -5z"/>
<path d="M3508 2046 c-4 -21 0 -25 31 -30 20 -3 54 -5 76 -5 24 1 30 3 15 5
-58 9 -100 26 -100 39 0 24 -17 17 -22 -9z"/>
<path d="M3843 2043 c9 -2 23 -2 30 0 6 3 -1 5 -18 5 -16 0 -22 -2 -12 -5z"/>
<path d="M3788 2033 c7 -3 16 -2 19 1 4 3 -2 6 -13 5 -11 0 -14 -3 -6 -6z"/>
<path d="M3670 2020 c0 -12 27 -12 55 0 16 7 13 9 -17 9 -21 1 -38 -3 -38 -9z"/>
<path d="M3907 1933 c-4 -3 -37 -10 -75 -14 l-67 -7 67 2 c38 1 73 7 80 14 7
7 10 12 7 12 -3 0 -9 -3 -12 -7z"/>
<path d="M3023 1875 c0 -22 2 -30 4 -17 2 12 2 30 0 40 -3 9 -5 -1 -4 -23z"/>
<path d="M3041 1894 c0 -11 3 -14 6 -6 3 7 2 16 -1 19 -3 4 -6 -2 -5 -13z"/>
<path d="M3466 1894 c-3 -8 -2 -12 3 -9 5 3 20 1 33 -5 15 -7 42 -8 78 -2 l55
10 -57 1 c-31 0 -68 5 -81 10 -20 8 -27 6 -31 -5z"/>
<path d="M3655 1900 c-18 -8 -17 -9 8 -9 15 -1 27 4 27 9 0 12 -8 12 -35 0z"/>
<path d="M3718 1903 c7 -3 16 -2 19 1 4 3 -2 6 -13 5 -11 0 -14 -3 -6 -6z"/>
<path d="M2931 1854 c0 -11 3 -14 6 -6 3 7 2 16 -1 19 -3 4 -6 -2 -5 -13z"/>
<path d="M2510 1856 c0 -2 7 -7 16 -10 8 -3 12 -2 9 4 -6 10 -25 14 -25 6z"/>
<path d="M2646 1835 c10 -8 23 -15 28 -15 6 0 1 7 -10 15 -10 8 -23 15 -28 15
-6 0 -1 -7 10 -15z"/>
<path d="M2740 1836 c0 -2 7 -7 16 -10 8 -3 12 -2 9 4 -6 10 -25 14 -25 6z"/>
<path d="M2850 1836 c0 -3 14 -12 30 -21 17 -9 30 -13 30 -11 0 3 -13 12 -30
21 -16 9 -30 13 -30 11z"/>
<path d="M2970 1826 c0 -2 7 -7 16 -10 8 -3 12 -2 9 4 -6 10 -25 14 -25 6z"/>
<path d="M3434 1792 c-3 -15 -7 -33 -10 -40 -2 -7 1 -10 6 -7 6 3 10 2 10 -4
0 -5 -6 -12 -12 -15 -7 -3 -3 -3 10 0 16 4 22 1 23 -13 2 -25 -1 -54 -7 -81
-4 -20 -1 -22 31 -20 23 2 34 7 30 16 -2 6 0 12 5 12 6 0 10 -4 10 -10 0 -5 6
-10 13 -10 8 0 14 -7 14 -15 0 -8 -9 -15 -19 -15 -10 0 -18 -5 -18 -11 0 -6
-7 -3 -16 5 -18 19 -58 22 -52 4 2 -6 10 -14 18 -16 8 -3 10 0 6 9 -4 8 2 3
13 -11 11 -14 21 -38 21 -53 0 -28 0 -28 -32 14 -36 45 -63 67 -73 57 -4 -4
12 -23 35 -44 23 -21 48 -50 56 -66 8 -15 22 -28 32 -27 14 0 14 2 -3 10 l-20
9 20 -3 c12 -2 18 -9 16 -18 -2 -8 -4 -19 -4 -25 0 -13 -47 -14 -47 -2 0 5
-31 41 -70 81 -38 41 -66 78 -62 82 4 5 2 5 -4 2 -7 -4 -23 2 -37 13 -44 34
-279 191 -296 198 -9 3 22 -21 69 -53 171 -117 339 -260 401 -341 9 -12 23
-24 30 -26 11 -4 11 -23 -5 -109 -20 -111 -30 -214 -19 -189 3 8 12 20 20 25
8 6 15 24 17 40 2 17 9 30 15 30 7 0 22 21 35 46 19 41 21 52 11 85 -7 26 -13
34 -17 24 -7 -17 -8 -11 -11 77 -1 28 1 49 6 46 14 -8 7 20 -10 39 -15 17 -15
18 3 18 16 0 16 2 4 10 -22 13 -10 18 35 12 32 -4 36 -6 20 -12 -19 -8 -19 -8
5 -18 l25 -11 -30 0 -30 -1 29 -15 c38 -20 39 -20 34 18 -7 45 0 61 18 42 10
-10 12 -20 6 -31 -9 -17 12 -74 27 -74 5 0 20 11 35 25 33 30 52 32 59 5 3
-11 0 -20 -6 -20 -8 0 -7 -3 2 -9 34 -22 56 -238 27 -267 -13 -13 -16 -10 -25
23 -6 21 -11 45 -11 54 0 9 -3 19 -7 23 -5 4 -13 22 -20 39 -10 29 -11 27 -8
-28 3 -44 1 -56 -6 -45 -9 12 -10 10 -6 -8 3 -12 2 -20 -2 -18 -4 3 -8 -13 -8
-35 -1 -21 -5 -44 -8 -49 -11 -19 -25 -10 -25 16 0 14 -4 23 -9 20 -5 -3 -12
5 -15 19 -11 43 -31 26 -25 -21 0 -4 -5 -11 -13 -15 -9 -6 -9 -9 -1 -9 8 0 10
-17 7 -57 -3 -32 -5 -92 -4 -133 1 -44 -5 -93 -13 -118 -8 -23 -11 -45 -6 -48
13 -7 11 -44 -2 -44 -5 0 -7 -4 -4 -10 3 -5 4 -10 1 -10 -3 0 -12 12 -21 28
l-15 27 7 -30 c3 -16 10 -31 14 -33 4 -2 4 -15 -1 -28 -7 -17 -7 -23 0 -19 6
4 10 -11 10 -39 0 -25 5 -48 10 -51 12 -8 10 -84 -2 -91 -5 -3 -6 -14 -3 -24
4 -12 -2 -24 -17 -35 -13 -9 -16 -15 -8 -13 10 3 19 -6 26 -26 12 -37 8 -56
-13 -56 -9 0 -13 -6 -9 -15 3 -9 0 -15 -9 -15 -27 0 7 -39 44 -51 47 -16 233
-5 300 17 49 16 52 19 47 43 -4 14 -11 73 -16 131 -6 58 -14 139 -20 180 -5
41 -16 183 -25 315 -17 266 -33 396 -70 561 -14 61 -25 116 -25 123 0 21 18
11 24 -14 4 -14 11 -25 17 -25 6 0 8 4 5 9 -3 5 15 16 40 26 25 9 43 20 40 23
-3 3 -34 11 -68 18 -83 17 -202 42 -258 55 -47 10 -88 45 -72 61 5 5 86 10
181 11 94 1 171 5 171 10 0 4 -91 7 -202 7 -157 0 -209 3 -230 14 -27 14 -28
14 -34 -12z m230 -148 c18 -7 12 -24 -10 -24 -8 0 -14 7 -14 15 0 17 2 18 24
9z m106 -9 c0 -18 -24 -30 -40 -20 -8 5 -5 11 7 21 24 18 33 17 33 -1z m-105
-34 c-3 -5 -1 -12 5 -16 15 -9 12 -25 -5 -25 -9 0 -15 9 -15 25 0 14 5 25 11
25 5 0 8 -4 4 -9z m115 -32 c0 -14 -7 -19 -24 -19 -14 0 -28 5 -31 10 -3 6 0
10 8 10 8 0 18 7 21 16 8 20 26 9 26 -17z m-163 -15 c-3 -3 -12 -4 -19 -1 -8
3 -5 6 6 6 11 1 17 -2 13 -5z m173 -44 c0 -21 -9 -23 -50 -10 -17 5 -19 8 -7
9 9 1 17 6 17 11 0 6 9 10 20 10 13 0 20 -7 20 -20z m-260 -110 c13 -8 13 -10
-2 -10 -9 0 -20 5 -23 10 -8 13 5 13 25 0z m50 -130 c8 -5 11 -10 5 -10 -5 0
-17 5 -25 10 -8 5 -10 10 -5 10 6 0 17 -5 25 -10z"/>
<path d="M2855 1772 c39 -21 91 -50 118 -66 26 -15 47 -26 47 -23 0 6 -116 75
-177 106 -72 36 -62 23 12 -17z"/>
<path d="M2920 1796 c0 -2 7 -7 16 -10 8 -3 12 -2 9 4 -6 10 -25 14 -25 6z"/>
<path d="M3918 1783 c7 -3 16 -2 19 1 4 3 -2 6 -13 5 -11 0 -14 -3 -6 -6z"/>
<path d="M2974 1766 c11 -9 24 -16 30 -16 12 0 7 5 -24 19 -24 11 -24 11 -6
-3z"/>
<path d="M2724 1738 c98 -68 301 -197 304 -193 5 4 -199 138 -273 179 -28 15
-42 21 -31 14z"/>
<path d="M3080 1685 c109 -77 256 -203 347 -298 63 -67 79 -79 56 -46 -59 85
-278 279 -410 362 -67 43 -63 31 7 -18z"/>
<path d="M2871 1706 c13 -14 152 -96 156 -92 3 2 -28 23 -69 47 -89 51 -95 54
-87 45z"/>
<path d="M2705 1685 c11 -9 29 -21 40 -26 l20 -10 -20 16 c-11 9 -29 21 -40
26 l-20 10 20 -16z"/>
<path d="M2490 1686 c0 -2 7 -7 16 -10 8 -3 12 -2 9 4 -6 10 -25 14 -25 6z"/>
<path d="M2550 1656 c0 -3 9 -10 20 -16 11 -6 20 -8 20 -6 0 3 -9 10 -20 16
-11 6 -20 8 -20 6z"/>
<path d="M3065 1628 c129 -108 260 -223 332 -294 46 -44 83 -77 83 -72 0 22
-275 275 -390 359 -55 40 -69 44 -25 7z"/>
<path d="M2775 1643 c6 -5 47 -35 92 -65 45 -31 98 -68 117 -83 20 -15 36 -23
36 -19 -1 10 -13 19 -135 101 -98 65 -126 82 -110 66z"/>
<path d="M2480 1626 c0 -3 14 -12 30 -21 17 -9 30 -13 30 -11 0 3 -13 12 -30
21 -16 9 -30 13 -30 11z"/>
<path d="M2705 1623 c6 -5 55 -41 110 -79 55 -39 125 -88 155 -110 30 -21 51
-33 47 -27 -4 7 -65 52 -135 101 -132 92 -194 133 -177 115z"/>
<path d="M2440 1575 c0 -2 18 -14 40 -25 22 -11 40 -18 40 -15 0 2 -18 14 -40
25 -22 11 -40 18 -40 15z"/>
<path d="M2570 1577 c0 -2 19 -17 43 -33 23 -16 84 -60 136 -97 171 -125 232
-168 255 -177 12 -4 67 -50 121 -102 177 -166 295 -270 295 -261 0 5 -35 41
-77 79 -260 236 -319 287 -337 294 -12 4 -82 52 -156 105 -215 155 -280 200
-280 192z"/>
<path d="M3040 1577 c0 -2 30 -30 68 -62 84 -71 151 -133 271 -249 51 -50 88
-81 82 -69 -21 42 -421 403 -421 380z"/>
<path d="M2695 1562 c19 -20 317 -232 313 -223 -1 5 -55 46 -118 91 -139 100
-208 147 -195 132z"/>
<path d="M2531 1527 c3 -4 34 -25 70 -47 35 -22 51 -30 35 -16 -27 22 -118 77
-105 63z"/>
<path d="M3030 1508 c0 -3 83 -81 185 -173 102 -92 196 -180 210 -197 14 -17
28 -28 31 -25 8 7 -128 141 -272 266 -148 130 -154 135 -154 129z"/>
<path d="M2450 1496 c0 -2 33 -22 73 -44 81 -45 440 -302 502 -360 133 -125
305 -270 304 -256 0 5 -30 33 -67 62 -37 30 -110 93 -162 141 -155 143 -650
490 -650 457z"/>
<path d="M2418 1443 c7 -3 16 -2 19 1 4 3 -2 6 -13 5 -11 0 -14 -3 -6 -6z"/>
<path d="M2677 1430 c6 -8 82 -64 168 -125 86 -60 209 -158 273 -216 186 -170
282 -246 310 -246 16 0 20 2 11 8 -7 4 -17 5 -21 3 -9 -6 -140 105 -308 259
-58 53 -109 97 -113 97 -4 0 -65 42 -135 93 -170 124 -199 144 -185 127z"/>
<path d="M3508 1433 c7 -3 16 -2 19 1 4 3 -2 6 -13 5 -11 0 -14 -3 -6 -6z"/>
<path d="M2450 1426 c0 -3 21 -17 48 -32 148 -86 430 -293 543 -399 92 -86
197 -171 204 -163 2 2 -21 24 -53 48 -31 25 -97 81 -146 125 -91 82 -265 214
-416 315 -94 63 -180 114 -180 106z"/>
<path d="M3060 1399 c19 -20 105 -101 190 -180 85 -79 163 -153 172 -164 10
-11 17 -15 18 -9 0 12 -117 127 -265 259 -123 109 -161 141 -115 94z"/>
<path d="M3700 1412 c0 -14 23 -32 42 -32 11 0 18 7 18 20 0 16 -7 20 -30 20
-16 0 -30 -4 -30 -8z"/>
<path d="M3021 1355 c6 -16 409 -387 409 -377 0 4 -73 76 -162 159 -210 193
-252 230 -247 218z"/>
<path d="M2460 1346 c0 -3 9 -10 20 -16 11 -6 20 -8 20 -6 0 3 -9 10 -20 16
-11 6 -20 8 -20 6z"/>
<path d="M2510 1317 c3 -3 41 -29 84 -57 44 -29 147 -101 229 -162 81 -60 150
-108 152 -106 7 7 -380 284 -440 315 -16 9 -28 13 -25 10z"/>
<path d="M2456 1272 c5 -5 44 -30 87 -56 43 -25 151 -100 240 -164 175 -127
187 -136 187 -128 0 2 -35 30 -77 60 -43 31 -116 84 -163 118 -120 88 -324
213 -274 170z"/>
<path d="M3711 1194 c0 -11 3 -14 6 -6 3 7 2 16 -1 19 -3 4 -6 -2 -5 -13z"/>
<path d="M2465 1193 c6 -5 51 -35 100 -66 50 -30 158 -105 240 -166 83 -61
155 -111 160 -110 6 0 -1 8 -15 17 -13 9 -76 55 -140 101 -154 113 -386 263
-345 224z"/>
<path d="M2460 1125 c0 -3 52 -39 115 -80 63 -41 154 -103 202 -138 89 -65
156 -109 138 -91 -17 17 -215 158 -310 220 -138 90 -145 95 -145 89z"/>
<path d="M2535 996 c39 -24 116 -77 173 -116 57 -40 105 -70 107 -68 7 7 -321
226 -340 227 -5 1 22 -19 60 -43z"/>
<path d="M2994 960 c29 -39 166 -149 166 -133 0 4 -18 20 -38 35 -21 15 -63
48 -92 75 -30 26 -46 37 -36 23z"/>
<path d="M2485 955 c17 -14 187 -127 223 -149 28 -17 9 3 -30 31 -52 37 -221
140 -193 118z"/>
<path d="M3019 861 c24 -23 48 -41 54 -41 6 0 8 1 6 3 -2 1 -26 20 -54 41
l-50 38 44 -41z"/>
<path d="M2480 885 c0 -6 121 -87 125 -83 2 1 -26 22 -61 46 -35 23 -64 40
-64 37z"/>
<path d="M2487 799 c7 -7 15 -10 18 -7 3 3 -2 9 -12 12 -14 6 -15 5 -6 -5z"/>
<path d="M3436 757 c2 -7 13 -18 24 -25 17 -10 20 -10 20 3 0 8 -9 19 -19 25
-26 13 -31 13 -25 -3z"/>
<path d="M3390 755 c0 -5 5 -17 10 -25 5 -8 10 -10 10 -5 0 6 -5 17 -10 25 -5
8 -10 11 -10 5z"/>
<path d="M3160 729 c-34 -7 -34 -7 8 -6 24 1 45 4 47 7 5 8 -9 8 -55 -1z"/>
<path d="M3095 720 c-3 -6 1 -7 9 -4 18 7 21 14 7 14 -6 0 -13 -4 -16 -10z"/>
<path d="M2978 713 c7 -3 16 -2 19 1 4 3 -2 6 -13 5 -11 0 -14 -3 -6 -6z"/>
<path d="M3247 685 c17 -22 48 -56 69 -75 l38 -35 -41 50 c-23 28 -54 61 -69
75 -27 24 -27 24 3 -15z"/>
<path d="M3320 685 c43 -45 49 -45 13 0 -15 19 -32 35 -37 35 -6 0 5 -16 24
-35z"/>
<path d="M2801 704 c4 -11 89 -90 89 -82 0 2 -21 24 -46 48 -26 25 -45 40 -43
34z"/>
<path d="M3248 600 c103 -109 134 -136 92 -82 -32 41 -181 192 -189 192 -4 0
40 -49 97 -110z"/>
<path d="M2960 696 c0 -2 20 -16 44 -30 24 -14 104 -85 177 -158 179 -178 222
-212 79 -63 -109 114 -166 166 -249 227 -34 25 -51 33 -51 24z"/>
<path d="M3210 558 c76 -78 141 -140 144 -137 6 6 -240 256 -265 270 -11 5 44
-54 121 -133z"/>
<path d="M2785 631 c33 -35 75 -78 94 -95 19 -17 41 -38 49 -46 9 -8 29 -25
46 -38 47 -33 140 -118 225 -203 82 -81 144 -132 168 -135 8 -2 12 1 8 4 -4 4
-10 7 -13 7 -13 0 -137 107 -159 137 -21 30 -61 65 -208 185 -38 32 -115 100
-170 152 -62 59 -77 71 -40 32z"/>
<path d="M3388 675 c7 -11 28 -38 48 -60 l36 -40 -33 48 c-36 52 -72 89 -51
52z"/>
<path d="M2570 672 c0 -12 283 -301 291 -296 5 3 43 -23 85 -58 42 -35 105
-84 139 -109 34 -26 72 -63 84 -83 20 -31 119 -126 133 -126 12 0 -196 205
-249 245 -32 25 -85 67 -118 94 -33 27 -65 50 -70 50 -6 1 -75 65 -153 144
-78 79 -142 142 -142 139z"/>
<path d="M2720 603 c95 -101 125 -129 190 -178 29 -22 76 -60 104 -85 28 -25
72 -60 98 -79 26 -19 58 -51 72 -71 28 -42 176 -168 176 -149 0 7 10 5 28 -6
l27 -18 -19 22 c-11 12 -26 19 -33 17 -16 -6 -148 103 -178 147 -12 17 -54 56
-93 87 -167 130 -262 213 -345 299 -48 50 -91 91 -94 91 -4 0 27 -35 67 -77z"/>
<path d="M2655 482 c104 -105 191 -189 194 -187 5 6 -223 236 -314 317 -38 34
15 -24 120 -130z"/>
<path d="M2443 593 c34 -31 137 -132 230 -222 92 -91 167 -163 167 -160 0 15
-437 439 -453 439 -3 0 22 -26 56 -57z"/>
<path d="M2940 647 c0 -2 32 -31 71 -63 39 -33 129 -116 201 -186 71 -71 134
-128 138 -128 4 0 -42 48 -104 108 -61 59 -112 110 -114 114 -4 8 -161 141
-179 152 -7 4 -13 5 -13 3z"/>
<path d="M2045 605 c7 -22 29 -53 47 -70 19 -16 53 -55 75 -85 22 -30 53 -66
69 -80 26 -23 26 -22 -4 15 -18 22 -49 61 -68 86 -19 26 -50 59 -69 73 -19 15
-35 35 -35 45 0 9 -7 26 -14 37 -13 17 -13 14 -1 -21z"/>
<path d="M2097 623 c4 -10 39 -51 80 -91 48 -48 64 -60 46 -35 -15 21 -45 52
-67 68 -23 17 -42 41 -44 53 -2 12 -7 22 -12 22 -5 0 -6 -8 -3 -17z"/>
<path d="M2168 623 c6 -11 24 -28 39 -38 15 -9 38 -29 50 -44 13 -14 23 -21
23 -15 0 6 -28 35 -61 64 -34 30 -57 45 -51 33z"/>
<path d="M2259 623 c13 -10 32 -26 42 -35 11 -10 19 -14 19 -9 0 10 -64 61
-76 61 -5 0 2 -8 15 -17z"/>
<path d="M3401 578 c18 -27 41 -56 53 -65 18 -17 18 -16 -2 12 -12 17 -36 46
-53 65 l-31 35 33 -47z"/>
<path d="M3487 609 c7 -7 15 -10 18 -7 3 3 -2 9 -12 12 -14 6 -15 5 -6 -5z"/>
<path d="M1920 598 c0 -8 7 -21 15 -28 19 -16 19 -1 0 24 -12 16 -15 17 -15 4z"/>
<path d="M2946 558 c31 -29 67 -60 80 -68 24 -16 57 -47 201 -189 51 -49 106
-97 123 -106 42 -22 37 -12 -12 25 -24 17 -99 84 -168 150 -128 122 -264 240
-275 240 -4 0 19 -24 51 -52z"/>
<path d="M2440 505 c58 -54 148 -141 200 -193 52 -53 120 -118 150 -145 30
-28 -26 30 -125 129 -99 99 -214 208 -255 243 -53 45 -44 35 30 -34z"/>
<path d="M3492 560 c0 -14 2 -19 5 -12 2 6 2 18 0 25 -3 6 -5 1 -5 -13z"/>
<path d="M2005 538 c3 -7 22 -24 42 -38 19 -13 43 -41 52 -61 9 -20 45 -67 80
-105 35 -38 59 -59 52 -47 -6 12 -35 48 -65 80 -29 32 -56 68 -60 80 -4 12
-29 41 -57 63 -27 23 -47 36 -44 28z"/>
<path d="M2310 527 c0 -3 44 -44 98 -91 53 -47 169 -155 256 -240 88 -86 161
-154 164 -152 5 6 -293 295 -398 387 -101 88 -120 103 -120 96z"/>
<path d="M3380 528 c0 -3 20 -32 45 -64 25 -31 45 -54 45 -49 0 4 -17 29 -37
54 -48 60 -53 66 -53 59z"/>
<path d="M1959 502 c6 -12 16 -22 21 -22 4 0 22 -14 39 -31 17 -17 31 -26 31
-21 0 5 -23 28 -51 52 -34 29 -48 36 -40 22z"/>
<path d="M3498 493 c7 -3 16 -2 19 1 4 3 -2 6 -13 5 -11 0 -14 -3 -6 -6z"/>
<path d="M1920 466 c0 -4 18 -24 40 -45 38 -36 55 -42 28 -10 -22 25 -68 63
-68 55z"/>
<path d="M2291 453 c0 -4 27 -30 61 -58 33 -27 133 -119 222 -203 88 -85 174
-163 191 -174 28 -18 27 -17 -5 13 -19 18 -87 82 -150 142 -138 132 -320 292
-319 280z"/>
<path d="M2250 446 c0 -2 7 -9 15 -16 13 -11 14 -10 9 4 -5 14 -24 23 -24 12z"/>
<path d="M1910 389 c19 -19 36 -34 38 -33 10 4 -14 33 -41 49 l-32 19 35 -35z"/>
<path d="M3426 382 c20 -35 42 -58 48 -51 2 2 -12 22 -31 44 -35 39 -35 39
-17 7z"/>
<path d="M1830 393 c0 -5 16 -21 35 -36 45 -36 45 -29 0 12 -19 17 -35 28 -35
24z"/>
<path d="M2050 389 c0 -5 19 -29 43 -53 23 -23 61 -65 85 -92 l43 -49 -37 50
c-51 67 -134 156 -134 144z"/>
<path d="M2270 383 c0 -5 42 -45 93 -88 50 -44 143 -127 205 -185 62 -58 117
-107 123 -109 11 -3 -219 213 -343 323 -43 38 -78 64 -78 59z"/>
<path d="M2000 360 c0 -6 19 -32 43 -58 24 -26 59 -70 79 -97 20 -28 46 -59
59 -70 12 -11 -9 21 -46 70 -84 110 -135 169 -135 155z"/>
<path d="M1790 357 c0 -2 15 -16 33 -33 l32 -29 -29 33 c-28 30 -36 37 -36 29z"/>
<path d="M1950 324 c0 -6 14 -23 31 -40 17 -16 40 -45 52 -64 28 -48 66 -93
86 -104 9 -5 2 6 -15 25 -17 19 -45 54 -62 79 -42 60 -92 117 -92 104z"/>
<path d="M1769 302 c6 -12 16 -24 22 -28 8 -4 8 -1 0 14 -6 12 -16 24 -22 28
-8 4 -8 1 0 -14z"/>
<path d="M2861 312 c0 -8 72 -65 175 -139 39 -29 93 -79 119 -113 27 -33 52
-60 57 -60 13 0 -120 148 -143 161 -10 5 -61 43 -113 84 -53 41 -96 71 -95 67z"/>
<path d="M3425 310 c17 -31 79 -110 87 -110 5 0 -13 26 -38 58 -53 65 -60 73
-49 52z"/>
<path d="M2280 280 c87 -80 258 -230 290 -255 48 -37 -51 56 -185 174 -102 90
-185 153 -105 81z"/>
<path d="M1937 245 c22 -27 50 -67 63 -88 12 -21 24 -36 27 -34 6 7 -72 120
-103 147 -19 17 -16 10 13 -25z"/>
<path d="M1851 255 c7 -11 25 -34 39 -50 14 -17 33 -42 43 -55 l17 -25 -14 30
c-8 17 -33 50 -56 75 -23 25 -36 36 -29 25z"/>
<path d="M1801 225 c25 -37 59 -77 59 -68 0 4 -16 26 -36 48 -20 22 -30 31
-23 20z"/>
<path d="M2265 203 c67 -63 237 -205 240 -201 4 4 -121 114 -219 191 -49 39
-53 41 -21 10z"/>
<path d="M2873 224 c10 -12 55 -47 100 -79 45 -32 104 -79 132 -104 l50 -46
-45 48 c-25 27 -72 67 -105 90 -33 22 -80 56 -105 76 -25 20 -37 26 -27 15z"/>
<path d="M3570 215 c13 -14 25 -25 27 -25 9 0 -33 49 -41 50 -5 0 1 -11 14
-25z"/>
<path d="M1750 192 c0 -5 7 -15 15 -22 8 -7 15 -8 15 -2 0 5 -7 15 -15 22 -8
7 -15 8 -15 2z"/>
<path d="M2876 144 c43 -40 203 -151 180 -125 -11 12 -49 42 -85 66 -36 24
-79 54 -96 66 l-30 21 31 -28z"/>
<path d="M2226 147 c5 -8 49 -45 98 -82 49 -38 86 -63 82 -57 -10 17 -189 156
-180 139z"/>
<path d="M3401 124 c0 -11 3 -14 6 -6 3 7 2 16 -1 19 -3 4 -6 -2 -5 -13z"/>
<path d="M2892 58 c30 -26 88 -62 88 -55 0 2 -26 21 -57 41 -32 20 -46 27 -31
14z"/>
<path d="M2230 63 c0 -8 80 -68 80 -59 0 2 -18 19 -40 36 -22 17 -40 28 -40
23z"/>
<path d="M3471 47 c-13 -21 -12 -21 5 -5 10 10 16 20 13 22 -3 3 -11 -5 -18
-17z"/>
<path d="M3520 29 l-35 -30 38 26 c33 24 43 35 34 35 -1 0 -18 -14 -37 -31z"/>
<path d="M3595 24 c-18 -16 -22 -22 -9 -15 18 9 53 42 43 41 -2 -1 -17 -12
-34 -26z"/>
<path d="M1649 13 c-13 -16 -12 -17 4 -4 16 13 21 21 13 21 -2 0 -10 -8 -17
-17z"/>
<path d="M2840 16 c0 -2 7 -7 16 -10 8 -3 12 -2 9 4 -6 10 -25 14 -25 6z"/>
</g>
</svg>
